# xmcd CD database file
#
# Track frame offsets:
#	187
#	23055
#	40397
#	58142
#	78470
#	99620
#	114582
#	136537
#
# Disc length: 2011 seconds
#
# Revision: 0
# Processed by: cddbd v1.5.2PL0 Copyright (c) Steve Scherf et al.
# Submitted via: CDex 1.70beta2
#
DISCID=6207d908
DTITLE=Frankie Morales - Sobresaliendo
DYEAR=1900
DGENRE=Salsa
TTITLE0=Como Te Extrano Mi Amor
TTITLE1=Nieve Con Sal
TTITLE2=Te Volviste A Caer
TTITLE3=Solo Una Vez
TTITLE4=Como Amigo Como Amante
TTITLE5=Lo Que Tiens No Es Mio
TTITLE6=You'll Never Find Love Like Mine
TTITLE7=Viejo Pachanguero
EXTD=
EXTT0=
EXTT1=
EXTT2=
EXTT3=
EXTT4=
EXTT5=
EXTT6=
EXTT7=
PLAYORDER=
